<svg xmlns="http://www.w3.org/2000/svg" version="1.1" xmlns:xlink="http://www.w3.org/1999/xlink" xmlns:svgjs="http://svgjs.com/svgjs" width="1440" height="560" preserveAspectRatio="none" viewBox="0 0 1440 560"><g mask="url(&quot;#SvgjsMask1018&quot;)" fill="none"><path d="M463.61 626.74C614.61 624.17 734.67 438.57 1036.02 433.73 1337.37 428.89 1458.07 251.2 1608.43 248.93" stroke="rgba(153, 151, 150, 1)" stroke-width="2"></path><path d="M753.36 619.49C874.99 610 959.86 367.93 1171.28 367.55 1382.7 367.17 1480.28 489.48 1589.2 490.75" stroke="rgba(153, 151, 150, 1)" stroke-width="2"></path><path d="M446.14 635.13C645.84 597.66 731.68 99.42 1052.19 93.59 1372.7 87.76 1503.63 216.17 1658.24 216.79" stroke="rgba(153, 151, 150, 1)" stroke-width="2"></path><path d="M576.29 584.55C727.2 556.4 768.43 196.46 1034.78 176.06 1301.13 155.66 1373.43 37.61 1493.27 36.06" stroke="rgba(153, 151, 150, 1)" stroke-width="2"></path><path d="M592 612.83C703.65 591.76 673.35 310.06 930.46 309.54 1187.57 309.02 1434.57 448.81 1607.38 449.54" stroke="rgba(153, 151, 150, 1)" stroke-width="2"></path></g><defs><mask id="SvgjsMask1018"><rect width="1440" height="560" fill="#ffffff"></rect></mask></defs></svg>