<svg xmlns="http://www.w3.org/2000/svg" version="1.1" xmlns:xlink="http://www.w3.org/1999/xlink" xmlns:svgjs="http://svgjs.com/svgjs" width="1440" height="560" preserveAspectRatio="none" viewBox="0 0 1440 560"><g mask="url(&quot;#SvgjsMask1029&quot;)" fill="none"><path d="M875.14 578.55C949.66 576.85 924.09 482.95 1154.32 473.9 1384.55 464.85 1556.71 201.6 1712.68 193.9" stroke="rgba(153, 151, 150, 1)" stroke-width="2"></path><path d="M742.87 572.59C869.43 550.24 900.62 257.25 1131.2 235.71 1361.79 214.17 1413.82 71.26 1519.54 67.71" stroke="rgba(153, 151, 150, 1)" stroke-width="2"></path><path d="M907.12 658.78C985.52 651.83 947.81 502.53 1172.79 489.86 1397.77 477.19 1557.25 244.14 1704.13 237.86" stroke="rgba(153, 151, 150, 1)" stroke-width="2"></path><path d="M134.24 580.45C332.83 567.74 477.16 194.57 829.96 193.74 1182.77 192.91 1347.7 344.07 1525.69 344.94" stroke="rgba(153, 151, 150, 1)" stroke-width="2"></path><path d="M397.61 581.2C506.81 579.13 602.94 436.91 809.94 436.83 1016.94 436.75 1016.11 506.83 1222.27 506.83 1428.44 506.83 1530.04 437.08 1634.6 436.83" stroke="rgba(153, 151, 150, 1)" stroke-width="2"></path></g><defs><mask id="SvgjsMask1029"><rect width="1440" height="560" fill="#ffffff"></rect></mask></defs></svg>