<svg xmlns="http://www.w3.org/2000/svg" version="1.1" xmlns:xlink="http://www.w3.org/1999/xlink" xmlns:svgjs="http://svgjs.com/svgjs" width="1440" height="560" preserveAspectRatio="none" viewBox="0 0 1440 560"><g mask="url(&quot;#SvgjsMask1019&quot;)" fill="none"><path d="M902.59-58.07C806.77-55.55 831.78 76.04 545.95 82.69 260.12 89.34 22.71 341.74-167.32 345.89" stroke="rgba(153, 151, 150, 1)" stroke-width="2"></path><path d="M1147.24-79.54C971.96-76.8 828.46 134.21 480.78 138.4 133.1 142.59-13.15 316.05-185.68 317.6" stroke="rgba(153, 151, 150, 1)" stroke-width="2"></path><path d="M1335.19-34.89C1207.88-29.18 1108.8 186.32 876.18 186.83 643.56 187.34 646.67 116.83 417.17 116.83 187.67 116.83 74.24 186.63-41.84 186.83" stroke="rgba(153, 151, 150, 1)" stroke-width="2"></path><path d="M1224.78-75.88C1093.88-66.17 1003.99 189.86 772.61 191 541.23 192.14 546.52 121 320.44 121 94.36 121-17.34 190.79-131.73 191" stroke="rgba(153, 151, 150, 1)" stroke-width="2"></path><path d="M1108.16-91.43C989.8-88.94 886.83 70.34 663.13 70.46 439.43 70.58 440.61 0.46 218.09 0.46-4.42 0.46-114.31 70.25-226.94 70.46" stroke="rgba(153, 151, 150, 1)" stroke-width="2"></path></g><defs><mask id="SvgjsMask1019"><rect width="1440" height="560" fill="#ffffff"></rect></mask></defs></svg>